# xmcd
#
# Track frame offsets:
#   150
#   18209
#   35216
#   49535
#   64959
#   81413
#   96578
#   116273
#   134012
#   150541
#   167532
#   182623
#   204161
#   223401
#
# Disc length: 3140 seconds
#
# Revision: 0
# Processed by: cddbd v1.5PL3 Copyright (c) Steve Scherf et al.
# Submitted via: Media_Universe 3.0
#
DISCID=c50c420e
DTITLE=Jonny Lang - Long Time Coming
DYEAR=1900
DGENRE=Blues
TTITLE0=Give Me Up Again
TTITLE1=Red Light
TTITLE2=Get What You Give
TTITLE3=The One I Got
TTITLE4=Touch
TTITLE5=Beautiful One
TTITLE6=If We Try
TTITLE7=Goodbye Letter
TTITLE8=Save Yourself
TTITLE9=To Love Again
TTITLE10=Happiness And Misery
TTITLE11=Hide Your Love
TTITLE12=Dying To Live
TTITLE13=Long Time Coming
EXTD=
EXTT0=
EXTT1=
EXTT2=
EXTT3=
EXTT4=
EXTT5=
EXTT6=
EXTT7=
EXTT8=
EXTT9=
EXTT10=
EXTT11=
EXTT12=
EXTT13=
PLAYORDER=
